<svg width="2362" height="1002" viewBox="0 0 2362 1002" fill="none" xmlns="http://www.w3.org/2000/svg">
<path d="M765.23 704.355H0V716.08H765.23V704.355Z" fill="#E30613"/>
<path d="M2351.6 704.355H1598.09V716.08H2351.6V704.355Z" fill="#E30613"/>
<path d="M2361.09 196.146H5.87891V207.871H2361.09V196.146Z" fill="#E30613"/>
<path d="M1097.58 912.681C1089.91 912.23 1082.7 911.328 1075.03 908.623C1050.68 900.957 1026.78 876.155 1021.37 845.492C1018.21 845.943 1015.06 845.943 1012.35 846.394C995.667 846.394 983.943 838.277 983.943 817.985C983.943 800.399 993.863 793.635 1008.74 793.635C1014.61 793.635 1021.82 794.537 1029.04 796.341C1034.45 785.969 1043.01 775.598 1054.29 765.677C1059.25 761.168 1065.11 756.659 1070.97 752.149C1067.82 750.797 1065.11 749.895 1062.86 748.993C1049.78 744.484 1037.6 741.778 1027.23 741.778C1005.14 741.778 991.609 751.698 991.609 771.99C991.609 775.598 992.06 779.656 992.961 784.166L993.412 785.067H992.06C988.452 785.518 984.845 785.518 981.688 785.518C950.123 785.518 942.908 766.579 942.908 750.346C942.908 739.974 946.065 729.603 946.516 726.897C946.065 726.897 945.614 726.897 945.163 726.897C932.537 726.897 876.621 736.818 876.621 801.752C876.621 804.457 876.621 804.457 876.621 807.163V807.614C887.895 792.733 900.972 788.675 913.147 788.675C941.104 788.675 965.455 820.691 965.455 851.354C965.455 873.901 951.476 896.447 915.852 903.662C907.285 905.466 898.717 906.368 891.051 906.368C831.077 906.368 800.865 854.06 800.414 799.948C800.414 755.757 820.706 713.369 862.642 689.47C904.579 664.669 929.831 666.472 963.2 666.472C1018.21 666.472 1072.78 685.863 1122.38 717.428C1139.97 707.056 1158 697.587 1175.59 688.568C1112.46 653.395 1030.39 623.634 973.572 620.027C839.645 611.91 781.926 709.311 781.926 709.311C781.926 709.311 821.608 611.459 948.77 611.459C958.691 611.459 969.513 611.91 980.335 613.263C1040.76 620.478 1114.26 652.043 1177.84 687.215C1234.21 659.258 1286.07 638.966 1295.99 634.907C1309.97 629.496 1350.55 616.87 1399.25 616.87C1455.62 616.87 1523.26 634.005 1573.31 699.841C1573.31 699.841 1503.42 623.634 1393.39 623.634C1331.61 623.634 1235.56 660.61 1179.65 688.568C1198.59 699.39 1216.62 710.213 1233.31 721.035C1289.67 689.47 1347.39 670.08 1393.39 670.08C1403.31 670.08 1517.85 657.905 1553.92 771.54C1557.53 783.715 1559.33 795.89 1559.33 807.614C1559.33 856.765 1530.02 896.447 1495.75 905.466C1487.18 907.721 1479.07 908.623 1471.4 908.623C1439.38 908.623 1411.88 891.938 1399.25 864.882C1396.54 857.667 1395.64 850.903 1395.64 844.59C1395.64 814.378 1420.9 793.635 1444.79 793.635C1459.22 793.635 1474.11 800.399 1481.32 816.633C1483.12 809.418 1483.12 805.81 1483.12 799.497C1483.12 747.64 1427.66 737.72 1419.09 736.818C1418.19 744.033 1413.68 785.518 1383.92 785.518C1379.86 785.518 1375.8 784.616 1370.84 783.264L1369.94 782.813L1370.39 781.911C1372.65 773.794 1373.55 767.03 1373.55 761.619C1373.55 741.327 1361.37 735.465 1345.59 735.465C1322.59 735.465 1294.18 748.993 1293.73 748.993C1293.73 748.993 1288.77 751.248 1280.66 755.306C1294.18 765.677 1304.55 775.147 1311.77 783.264C1314.02 785.969 1316.73 789.126 1318.98 792.733C1328.91 789.126 1338.37 786.871 1346.94 786.871C1353.71 786.871 1359.57 788.224 1364.53 791.38C1375.8 798.595 1380.31 808.065 1380.31 817.534C1380.31 831.062 1370.84 843.688 1359.12 846.845C1356.41 847.296 1353.71 847.747 1350.55 847.747C1346.04 847.747 1341.08 847.296 1335.67 845.943C1335.22 865.784 1326.2 886.076 1301.85 900.957C1288.32 909.073 1275.7 912.23 1263.07 912.23C1261.27 912.23 1259.01 912.23 1257.21 911.779C1257.21 912.681 1257.21 913.583 1257.21 914.485C1257.21 948.755 1240.07 983.026 1205.8 992.947C1195.88 995.652 1186.41 997.005 1177.84 997.005C1130.95 997.005 1098.48 958.676 1097.58 912.681ZM1178.75 995.201C1187.31 995.201 1196.78 993.848 1206.25 991.143C1239.62 981.222 1256.31 947.853 1256.31 914.485C1256.31 913.583 1256.31 912.681 1256.31 911.779C1232.86 909.073 1210.76 895.996 1188.21 879.763C1166.12 894.644 1135 912.681 1101.64 912.681C1101.18 912.681 1100.28 912.681 1099.83 912.681C1100.73 957.774 1132.3 995.201 1178.75 995.201ZM1101.64 910.426C1134.1 910.426 1164.32 893.291 1186.41 878.41C1170.63 867.137 1155.3 854.962 1139.06 844.139C1116.97 863.98 1101.19 885.174 1099.83 905.466C1099.83 907.27 1099.83 908.623 1099.83 910.426C1100.28 910.426 1101.18 910.426 1101.64 910.426ZM1075.48 906.368C1082.7 908.623 1090.36 909.975 1097.58 909.975C1097.58 908.172 1097.58 906.819 1097.58 905.015C1098.93 884.272 1114.71 862.628 1136.81 842.336C1123.28 833.317 1109.75 825.651 1095.77 820.691C1093.97 820.24 1092.17 819.338 1090.36 818.887C1066.91 831.513 1042.56 841.885 1023.17 845.041C1028.59 874.803 1052.03 899.153 1075.48 906.368ZM1264.42 909.975C1276.6 909.975 1289.22 906.819 1302.3 899.153C1326.2 884.723 1334.77 864.882 1335.22 845.492C1318.53 841.434 1297.34 832.866 1273.44 820.24C1258.11 830.16 1243.23 840.532 1231.5 849.1C1234.21 851.354 1236.01 853.609 1238.27 855.864C1250.89 870.293 1257.66 890.134 1258.56 909.975C1260.36 909.975 1262.62 909.975 1264.42 909.975ZM1256.31 909.524C1255.4 890.134 1248.64 870.744 1236.46 857.216C1234.66 854.962 1232.41 852.707 1229.7 850.452C1220.68 856.765 1213.47 862.177 1208.96 865.333C1204 868.941 1197.68 873.45 1190.02 878.41C1212.11 894.193 1233.76 907.27 1256.31 909.524ZM1400.15 848.649C1400.15 854.962 1401.51 861.275 1403.76 868.039C1415.48 894.193 1442.09 910.426 1473.65 910.426C1481.32 910.426 1489.44 909.524 1497.55 907.27C1530.92 898.702 1559.78 859.922 1559.78 811.672C1539.04 642.122 1353.26 680 1306.81 696.234C1284.71 704.351 1260.81 714.271 1238.27 726.446C1254.5 737.269 1269.38 747.64 1282.01 757.561C1291.03 753.502 1295.99 751.248 1295.99 751.248C1295.99 751.248 1324.85 737.269 1348.75 737.269C1364.53 737.269 1378.51 744.033 1378.51 765.677C1378.51 771.089 1377.61 777.852 1375.8 785.518C1379.86 786.871 1383.92 787.322 1387.08 787.322C1416.84 787.773 1419.99 739.523 1419.99 739.523V738.621H1420.9C1420.9 738.621 1487.63 745.385 1487.63 803.556C1487.63 810.77 1486.73 811.672 1482.67 831.964C1479.52 826.102 1472.3 810.77 1454.26 806.712C1433.97 802.203 1406.01 810.77 1400.15 848.649ZM1040.31 688.568C857.682 646.631 799.963 750.797 806.276 817.083L810.785 837.375C818 865.333 852.722 906.368 891.051 906.368C898.717 906.368 906.834 905.466 915.401 903.662C964.553 897.8 963.651 859.02 963.651 859.02C960.494 797.243 913.147 799.948 901.423 802.654C887.444 805.81 875.269 821.593 875.269 821.593L874.818 815.28C874.367 811.221 874.367 807.614 874.367 804.006C874.367 737.269 931.635 726.897 945.163 726.897C946.065 726.897 946.516 726.897 947.418 726.897C947.868 726.897 948.319 726.897 948.77 728.25C948.77 729.603 944.712 739.974 944.712 752.149C944.712 767.932 951.025 785.067 981.688 785.518C984.394 785.518 987.55 785.518 990.256 785.067C989.354 781.009 988.903 777.402 988.903 773.794C988.903 752.149 1004.23 741.327 1026.78 741.327C1037.6 741.327 1049.78 743.582 1063.31 748.542C1066.01 749.444 1069.17 750.797 1072.33 752.149C1086.76 741.327 1094.87 734.112 1112.01 724.192L1117.42 720.584C1086.76 704.802 1065.11 695.783 1040.31 688.568ZM1188.21 877.057C1195.88 872.097 1202.19 867.137 1207.6 863.529C1212.11 860.373 1219.33 854.962 1227.9 848.649C1216.17 837.826 1199.04 825.2 1179.65 812.574C1165.67 822.044 1152.14 831.964 1140.42 842.336C1157.1 853.609 1172.88 866.235 1188.21 877.057ZM1229.7 847.747C1241.42 839.179 1255.85 828.808 1271.19 819.338C1254.95 810.77 1237.37 800.399 1219.33 788.675C1207.15 795.89 1194.08 803.556 1181.9 811.672C1200.84 824.298 1217.98 836.924 1229.7 847.747ZM1352.35 845.492C1355.51 845.492 1358.22 845.041 1360.47 844.59C1371.29 841.885 1380.31 830.16 1380.31 817.534C1380.31 808.967 1376.25 799.948 1365.43 793.184C1360.92 790.479 1355.51 789.126 1349.2 789.126C1341.08 789.126 1332.06 791.38 1322.59 794.988C1330.71 807.614 1337.47 825.651 1337.47 844.139C1342.88 845.041 1347.84 845.492 1352.35 845.492ZM986.198 817.985C986.198 837.375 996.118 844.139 1012.35 844.139C1015.06 844.139 1018.21 844.139 1020.92 843.688C1020.47 840.081 1020.02 836.474 1020.02 832.415C1020.02 821.142 1022.72 809.869 1028.13 798.144C1020.92 796.341 1014.16 795.439 1008.74 795.439C994.314 795.439 986.198 800.85 986.198 817.985ZM1335.22 843.238C1335.22 825.2 1328 808.065 1320.34 795.439C1305.91 800.85 1290.58 809.418 1275.7 818.887C1298.24 831.062 1318.98 839.63 1335.22 843.238ZM1022.27 832.415C1022.27 836.023 1022.72 839.63 1023.17 843.238C1041.66 840.081 1065.11 830.16 1088.11 817.985C1067.82 810.32 1047.52 802.654 1030.84 798.595C1024.53 809.869 1022.27 821.142 1022.27 832.415ZM1096.68 818.887C1111.11 824.298 1125.08 832.415 1138.61 841.434C1150.34 831.062 1163.41 821.142 1177.39 811.672C1165.22 804.007 1152.59 795.89 1139.97 788.675C1125.99 798.595 1109.75 808.967 1093.07 817.985C1094.42 817.985 1095.32 818.436 1096.68 818.887ZM1273.44 817.534C1288.77 808.065 1304.56 799.046 1319.44 793.635C1317.18 790.028 1314.93 786.871 1312.67 784.616C1305.46 776.5 1294.63 767.03 1280.66 756.208C1266.68 762.521 1245.48 773.343 1221.58 786.871C1239.62 798.595 1256.76 808.967 1273.44 817.534ZM1090.36 816.633C1107.05 807.614 1123.73 797.243 1138.16 787.322C1113.36 772.892 1089.46 760.266 1073.68 753.051C1067.37 757.561 1061.5 762.521 1056.09 767.03C1044.82 776.5 1037.15 786.42 1031.74 796.792C1048.88 800.85 1069.62 808.967 1090.36 816.633ZM1179.65 810.319C1192.27 801.752 1204.9 794.086 1217.07 786.871C1204.45 778.754 1191.37 769.736 1178.29 760.266C1171.53 764.776 1165.22 769.736 1158.9 774.696C1153.94 778.754 1148.08 782.813 1142.22 786.871C1154.85 794.537 1167.47 802.203 1179.65 810.319ZM1139.97 785.969C1146.28 781.46 1152.14 777.402 1157.55 773.343C1163.86 768.383 1170.18 763.874 1176.49 759.364C1168.37 753.502 1160.26 747.189 1151.69 740.876C1142.67 733.661 1133.2 726.897 1123.28 721.035C1106.15 730.956 1089.91 741.327 1075.48 752.149C1091.72 758.913 1115.61 771.539 1139.97 785.969ZM1219.33 785.969C1242.78 772.441 1264.42 762.07 1278.4 755.306C1265.77 745.836 1251.35 735.014 1234.66 724.643C1216.17 735.014 1197.68 746.738 1180.1 759.364C1193.17 768.383 1206.25 777.402 1219.33 785.969ZM1153.04 738.621C1161.61 744.934 1169.73 751.248 1178.29 757.561C1195.88 744.935 1214.37 733.21 1232.86 722.839C1216.17 712.017 1198.14 701.194 1179.2 690.372C1161.61 699.391 1143.12 708.86 1125.54 719.231C1135 725.545 1144.02 731.857 1153.04 738.621Z" fill="#E30613"/>
<path d="M1179.19 1001.51C1160.25 1001.51 1142.66 995.65 1128.23 984.377C1108.39 968.594 1096.22 943.793 1095.31 916.737C1088.55 916.286 1081.79 914.934 1074.57 912.679C1047.97 904.562 1025.42 878.859 1019.11 850C1010.09 850.902 1001.97 850 996.109 847.294C986.189 842.334 981.229 832.864 981.229 818.885C981.229 808.063 984.385 800.397 991.149 795.888C999.717 790.026 1012.79 790.026 1028.13 793.633C1033.99 783.262 1042.1 773.341 1052.93 764.323C1056.99 760.715 1061.04 757.559 1065.1 754.402C1064.2 753.951 1063.3 753.5 1062.4 753.5C1036.24 744.031 1014.15 744.482 1002.87 753.951C995.658 760.264 993.404 771.087 996.109 785.066L997.011 789.575L992.502 790.026C971.759 792.28 956.878 788.222 948.311 778.302C939.743 768.381 937.939 752.599 942.9 732.307C934.332 733.208 915.844 737.267 900.963 750.344C886.984 762.97 880.22 781.007 880.22 803.554C898.708 783.713 917.647 786.418 928.019 790.026C952.82 799.044 971.308 828.806 969.505 857.215C967.701 883.369 948.762 902.308 917.196 909.072C864.438 920.345 822.501 896.896 805.366 846.843C786.877 793.182 803.562 717.426 862.183 689.017C941.998 650.688 1035.79 660.609 1123.27 716.073C1138.6 707.054 1154.39 698.938 1169.72 690.821C1107.49 657.001 1037.14 627.691 980.778 620.927C916.295 613.261 863.085 629.494 821.599 669.176L815.737 662.863C859.026 621.378 914.942 604.242 981.68 612.359C1043.01 619.574 1116.06 650.688 1179.19 685.861C1235.55 657.903 1286.51 638.062 1295.98 634.455C1301.39 632.2 1429 584.852 1529.56 655.648L1524.6 662.412C1428.1 593.871 1304.1 639.866 1299.14 642.12C1290.12 645.728 1241.87 664.216 1188.21 690.821C1204.89 700.29 1220.22 709.76 1235.1 719.23C1306.35 679.999 1377.6 661.06 1424.04 671.882C1478.61 677.744 1523.7 689.017 1558.87 771.988C1568.79 805.357 1565.18 840.53 1548.95 868.037C1536.78 889.682 1518.29 905.013 1498 909.973C1455.16 920.796 1414.12 903.66 1397.89 867.586C1390.22 846.843 1393.38 826.551 1406.46 810.769C1418.63 796.339 1437.12 789.124 1453.8 791.83C1465.08 794.084 1474.55 800.397 1480.86 810.318C1483.12 794.084 1479.96 780.556 1472.29 769.283C1458.76 749.893 1433.51 743.129 1423.59 741.325C1422.24 751.246 1417.73 774.694 1402.4 784.615C1393.83 790.477 1383.46 790.928 1371.74 786.869L1368.13 785.516L1369.03 781.909C1373.99 762.97 1372.64 750.344 1365.42 744.482C1350.09 731.856 1310.86 746.285 1297.33 752.599C1296.88 752.599 1293.72 753.951 1288.76 756.657C1300.49 766.126 1309.96 774.694 1316.72 781.458C1318.53 783.713 1320.78 786.418 1323.03 789.575C1341.07 783.262 1357.31 781.909 1369.03 789.575C1381.66 797.692 1387.97 810.318 1385.71 823.395C1383.46 836.472 1373.99 847.294 1362.27 850.451C1356.4 851.803 1349.19 851.803 1341.07 850.451C1341.07 851.803 1340.62 853.607 1340.62 854.96C1337.46 875.703 1325.74 892.387 1305.9 904.111C1291.02 913.13 1276.59 916.287 1262.61 915.836C1262.61 925.305 1261.26 934.324 1258.55 943.342C1250.89 969.947 1232.4 989.337 1208.5 996.552C1198.13 1000.16 1188.66 1001.51 1179.19 1001.51ZM1103.43 916.737C1104.78 941.088 1115.61 963.634 1133.19 977.613C1152.58 992.945 1178.29 997.003 1205.79 988.886C1227.44 982.573 1242.77 965.889 1249.98 941.539C1252.24 932.971 1253.59 924.403 1253.59 915.385C1231.04 912.228 1209.4 899.151 1188.66 884.721C1166.56 899.151 1136.35 916.286 1103.43 916.737ZM1139.51 849.098C1119.21 868.037 1104.78 887.878 1103.43 906.817C1103.43 907.268 1103.43 907.719 1103.43 908.621C1132.74 908.17 1160.25 893.74 1181.44 879.761C1176.93 876.154 1171.97 872.997 1167.46 869.39C1158.44 862.175 1148.98 855.411 1139.51 849.098ZM1027.67 848.647C1033.54 874.35 1053.83 897.347 1077.28 904.562C1083.14 906.366 1089.45 907.719 1095.31 908.17C1095.31 907.719 1095.31 906.817 1095.31 906.366C1096.67 885.623 1111.55 864.429 1132.74 844.588C1120.57 836.923 1108.39 829.708 1095.77 825.198L1091.71 823.846C1069.16 835.119 1046.61 845.039 1027.67 848.647ZM1261.71 907.719C1274.33 908.17 1287.41 905.464 1300.94 897.347C1318.98 886.525 1329.35 872.095 1331.6 854.058C1332.05 852.254 1332.05 850.451 1332.05 848.647C1315.37 844.588 1295.53 836.021 1273.88 824.747C1260.36 833.315 1247.28 842.785 1236.46 850.451C1237.81 851.803 1239.16 853.607 1240.51 854.96C1253.14 868.488 1260.36 887.878 1261.71 907.719ZM1195.87 879.761C1214.81 892.838 1233.75 903.66 1253.14 907.268C1251.34 889.682 1245.02 872.997 1234.2 860.822C1232.85 859.469 1231.5 857.665 1229.69 855.862C1228.34 856.764 1226.99 858.116 1225.63 859.018C1219.77 863.528 1214.81 867.135 1211.2 869.39C1208.95 871.193 1206.24 872.997 1203.09 874.801C1200.83 876.154 1198.58 877.957 1195.87 879.761ZM1446.14 799.946C1433.96 799.946 1421.34 805.808 1412.77 816.18C1401.95 829.257 1399.24 846.843 1405.55 863.979C1419.98 895.544 1456.96 911.326 1495.74 901.406C1513.78 896.896 1530.46 882.918 1541.29 863.528C1556.17 837.825 1559.32 804.906 1550.3 774.243C1516.93 695.781 1476.35 685.41 1422.24 679.548C1378.05 669.627 1310.86 687.214 1242.77 724.19C1256.75 733.659 1269.37 742.678 1280.65 751.246C1287.86 748.089 1292.37 745.835 1293.27 745.384C1295.53 744.482 1347.84 719.68 1370.38 738.169C1379.85 746.285 1382.56 760.264 1377.6 780.556C1385.26 782.36 1391.58 781.458 1396.99 777.851C1412.77 767.479 1415.02 736.816 1415.02 736.365L1415.48 731.856L1419.98 732.307C1421.79 732.307 1459.67 736.816 1479.06 764.323C1490.33 780.105 1492.58 800.397 1486.27 824.297L1482.66 837.824L1478.15 824.747C1471.84 807.161 1460.12 801.299 1451.55 799.946C1450.65 800.397 1448.39 799.946 1446.14 799.946ZM964.995 673.235C933.43 673.235 900.061 679.548 866.241 696.232C811.679 722.386 796.798 793.182 813.933 843.687C829.716 889.231 867.594 910.424 915.844 900.504C943.801 894.642 959.584 878.859 961.388 856.764C963.191 832.413 946.507 805.808 925.313 798.143C909.08 792.28 893.297 799.044 880.22 817.533L873.456 827.002L872.554 815.729C868.496 771.087 887.886 748.54 905.021 737.267C923.509 725.092 946.507 722.386 950.565 724.641L952.82 725.994V728.699C952.82 729.601 952.82 730.052 952.369 731.856C947.409 750.795 948.311 764.774 955.526 773.341C961.839 780.556 972.661 783.713 987.993 782.811C985.287 764.323 991.6 753.951 997.913 748.54C1011.44 736.816 1036.24 735.914 1065.55 746.286C1067.81 747.187 1070.51 748.089 1073.22 749.442C1086.3 739.972 1100.73 730.503 1115.61 721.484C1076.38 695.781 1024.07 673.235 964.995 673.235ZM1146.27 843.236C1155.29 849.549 1163.86 855.862 1172.42 862.175C1177.83 866.233 1183.25 870.292 1188.66 874.35C1192.26 872.095 1195.42 869.841 1198.13 867.586C1201.28 865.331 1203.99 863.528 1206.24 861.724C1209.85 859.469 1214.36 855.862 1220.67 851.352C1221.57 850.451 1222.48 850 1223.38 849.098C1212.11 839.177 1196.77 828.355 1180.09 817.082C1167.91 825.649 1156.64 834.217 1146.27 843.236ZM1187.76 812.572C1204.44 823.846 1219.77 835.119 1230.59 844.588C1240.97 836.923 1253.14 828.355 1265.77 820.238C1250.89 812.121 1235.55 803.103 1219.77 792.731C1208.95 799.044 1198.13 805.357 1187.76 812.572ZM1340.62 842.334C1348.29 843.687 1355.05 844.138 1359.56 842.785C1367.68 840.53 1374.89 832.413 1376.7 822.493C1377.6 816.631 1377.15 805.808 1363.62 796.79C1355.05 791.379 1341.97 792.28 1327.09 797.241C1334.31 809.416 1340.17 825.649 1340.62 842.334ZM1009.19 799.495C1003.78 799.495 999.266 800.397 995.658 802.652C991.6 805.357 989.345 810.769 989.345 818.885C989.345 829.257 992.502 836.021 999.266 839.628C1003.78 841.883 1010.09 842.334 1017.3 841.883C1015.95 827.904 1018.21 814.376 1023.62 801.299C1018.66 800.397 1013.7 799.495 1009.19 799.495ZM1032.63 803.103C1026.32 816.631 1024.97 829.708 1026.32 840.079C1042.1 836.923 1061.04 829.257 1080.88 818.885C1063.75 813.023 1047.06 807.161 1032.63 803.103ZM1282.45 819.787C1301.39 829.708 1318.53 836.472 1332.5 840.53C1331.6 825.649 1325.74 811.22 1319.43 800.848C1307.25 805.358 1294.63 812.121 1282.45 819.787ZM1100.73 817.984C1113.8 822.944 1126.43 830.159 1138.6 838.275C1148.98 829.257 1160.25 820.689 1171.97 812.572C1161.6 805.808 1150.78 799.495 1140.41 793.182C1129.13 801.299 1115.16 809.867 1100.73 817.984ZM1227.89 788.222C1244.12 798.593 1259.45 807.612 1273.43 815.278C1286.96 806.71 1300.94 799.044 1314.47 793.633C1313.11 791.379 1311.31 789.575 1309.96 788.222C1302.74 780.556 1292.37 771.538 1279.75 761.617C1267.57 767.028 1248.63 776.498 1227.89 788.222ZM1036.69 795.437C1052.02 799.495 1069.16 805.808 1086.75 812.572L1090.8 813.925C1105.23 806.259 1119.66 797.241 1132.74 788.222C1110.65 775.596 1089.45 764.323 1074.12 757.559C1068.71 761.617 1063.3 766.126 1058.34 770.185C1048.87 778.752 1041.65 787.32 1036.69 795.437ZM1148.07 787.771C1158.9 794.084 1169.27 800.848 1179.64 807.612C1190.01 800.397 1200.83 794.084 1211.2 787.771C1199.93 780.556 1189.11 772.89 1178.29 765.225C1172.42 769.283 1166.56 773.792 1160.7 778.302C1157.09 781.007 1153.03 784.164 1148.07 787.771ZM1082.24 752.148C1098.02 759.362 1118.76 770.636 1140.41 783.262C1145.82 779.203 1151.23 775.596 1156.19 771.538C1161.15 767.479 1166.56 763.872 1171.52 759.813C1164.31 754.402 1157.09 749.442 1150.33 744.031C1142.66 738.169 1133.64 731.856 1123.72 725.092C1108.84 733.659 1094.86 742.678 1082.24 752.148ZM1185.95 759.813C1197.22 767.93 1208.95 775.596 1219.77 782.811C1240.06 771.087 1259 761.617 1272.98 755.304C1261.71 746.736 1249.08 737.718 1235.1 728.699C1218.42 738.169 1202.18 748.54 1185.95 759.813ZM1131.84 720.582C1139.51 725.994 1147.62 731.405 1155.29 737.267C1162.95 743.129 1170.62 748.991 1178.74 754.853C1194.52 743.58 1210.75 733.209 1227.44 723.739C1212.56 714.269 1196.32 704.349 1179.64 695.33C1163.4 702.996 1147.62 711.564 1131.84 720.582Z" fill="#E30613"/>
<path d="M1575.09 700.749C1575.09 700.749 1479.49 559.157 1245.91 654.304C1155.73 690.829 1093.5 727.805 1059.68 761.174C976.706 837.382 1050.66 895.101 1050.66 894.65C1041.19 882.024 1029.01 865.339 1026.31 844.596C1020.9 800.856 1056.97 739.53 1246.81 664.675C1378.03 612.818 1491.67 609.21 1575.09 700.749Z" fill="#E30613"/>
<path d="M1053.39 896.449C1053.39 896.449 1105.25 945.601 1204.9 868.041C1290.58 804.46 1319.44 795.892 1338.83 791.383C1354.16 787.775 1396.55 801.303 1372.2 840.083C1388.88 829.261 1388.43 783.717 1338.83 788.677C1288.33 794.088 1222.04 848.2 1168.83 882.02C1107.5 921.251 1058.8 901.41 1053.39 896.449Z" fill="#E30613"/>
<path d="M1023.15 844.595C1023.15 844.595 1085.83 837.38 1208.93 748.095C1299.57 689.925 1405.09 660.164 1470.47 686.318C1529.54 710.217 1533.6 722.392 1555.25 778.308C1554.8 759.369 1513.31 679.103 1426.73 669.633C1373.52 666.477 1323.02 661.968 1188.19 751.252C1092.59 820.695 1023.15 844.595 1023.15 844.595Z" fill="#E30613"/>
<path d="M1350.07 741.779C1380.28 744.485 1374.87 775.599 1374.87 775.599C1374.87 775.599 1400.58 688.118 1249.96 769.737C1121.45 839.18 1091.24 876.608 1101.61 933.425C1096.65 863.531 1163.39 826.554 1231.03 787.323C1288.74 753.504 1326.17 739.525 1350.07 741.779Z" fill="#E30613"/>
<path d="M782.816 709.757C782.816 709.757 833.772 591.162 987.088 614.61C1140.4 638.51 1300.49 770.182 1309.95 779.651C1319.42 789.121 1366.32 854.506 1304.54 898.697C1402.4 804.903 1208.95 714.717 1208.95 714.717C1208.95 714.717 924.409 507.74 782.816 709.757Z" fill="#E30613"/>
<path d="M212.848 468.052C212.848 498.264 198.418 521.262 169.108 537.946C154.678 546.063 136.19 550.121 113.643 550.121C106.429 550.121 100.566 550.121 96.0571 550.121L53.2186 549.219C37.887 549.219 26.1628 549.67 17.5951 550.121L15.7914 548.318V543.357L16.6932 541.103C25.7119 535.692 30.2212 532.084 31.123 530.28C32.0249 528.026 32.9267 520.36 32.9267 506.381L33.3777 466.248V375.16C33.3777 346.751 32.4758 328.263 31.123 319.696C30.6721 316.088 28.4175 313.833 24.81 312.932C23.0063 312.481 15.7913 312.03 3.6162 311.128L1.8125 309.324V297.149L3.6162 295.345C14.4385 296.247 32.4758 296.247 58.6298 296.247C75.3143 296.247 90.195 295.796 103.272 295.345C113.643 294.894 122.662 294.443 129.877 294.443C163.246 294.443 185.341 302.109 195.713 317.441C201.124 325.558 203.83 334.576 203.83 344.948C203.83 362.083 197.066 376.062 183.989 387.335C177.676 392.746 170.912 396.805 164.148 399.51C156.031 402.667 147.463 404.921 138.445 407.176C188.047 409.882 212.848 430.174 212.848 468.052ZM150.169 354.417C150.169 327.812 136.19 314.735 108.683 314.735C99.6645 314.735 91.9988 315.186 85.6857 316.088C85.2348 328.714 84.7838 340.438 84.7838 350.81V400.412C87.4894 400.863 92.9006 400.863 101.468 400.863C123.113 400.863 137.543 394.099 144.307 380.12C147.914 372.004 150.169 363.436 150.169 354.417ZM157.835 473.914C157.835 437.84 138.896 419.802 101.468 419.802C96.5081 419.802 91.0969 419.802 85.2348 420.253V503.225C85.2348 512.243 85.6857 520.811 86.1366 529.829C91.0968 530.731 97.8608 531.182 106.879 531.182C123.564 531.182 136.641 525.771 145.659 515.4C153.325 505.479 157.835 491.5 157.835 473.914Z" fill="#E30613"/>
<path d="M523.098 548.771L521.294 550.124C496.493 549.222 478.005 549.222 465.379 549.222C439.675 549.222 421.638 549.673 410.365 550.124L408.561 548.32V536.145L410.365 534.341C422.991 533.439 429.755 532.988 431.559 532.537C435.166 531.636 436.97 529.381 437.872 525.773C439.225 517.206 440.126 498.718 440.126 470.309V337.735L327.845 550.124C315.669 549.673 303.945 549.222 293.574 549.222C286.81 549.222 271.478 549.673 247.128 550.124L245.324 548.32V536.145L247.128 534.341C259.303 533.439 266.518 532.988 268.322 532.537C271.929 531.636 273.733 529.381 274.635 525.773C275.988 517.206 276.889 498.718 276.889 470.309V375.162C276.889 346.754 275.988 328.266 274.635 319.698C274.184 316.09 271.929 313.836 268.322 312.934C266.518 312.483 259.303 312.032 247.128 311.13L245.324 309.326V297.151L247.128 295.348C265.616 296.25 284.104 296.25 302.592 296.25C314.768 296.25 333.256 295.799 358.057 295.348L359.861 297.151V309.326L358.057 311.13C345.882 312.032 338.667 312.483 336.863 312.934C333.256 313.836 331.452 316.09 330.55 319.698C329.197 328.266 328.296 346.754 328.296 375.162V510.442L440.577 295.348C456.36 296.25 466.731 296.25 472.593 296.25C476.652 296.25 492.885 295.799 521.745 295.348L523.549 297.151V309.326L521.745 311.13C509.57 312.032 502.355 312.483 500.551 312.934C496.944 313.836 495.14 316.09 494.238 319.698C492.885 328.266 491.984 346.754 491.984 375.162V470.309C491.984 498.718 492.885 517.206 494.238 525.773C494.689 529.381 496.944 531.636 500.551 532.537C502.355 532.988 509.119 533.439 521.745 534.341L523.549 536.145V548.771H523.098Z" fill="#E30613"/>
<path d="M829.265 548.32L827.461 550.124C815.737 549.222 797.248 549.222 771.996 549.222C746.293 549.222 727.805 549.673 716.532 550.124L714.728 548.32V536.145L716.532 534.341C728.707 533.439 735.922 532.988 737.726 532.537C741.333 531.636 743.137 529.381 744.039 525.773C745.391 517.206 746.293 498.718 746.293 470.309V427.019C739.98 426.569 720.59 426.118 688.123 426.118C657.911 426.118 638.07 426.569 628.6 427.019V470.309C628.6 498.718 629.502 517.206 630.855 525.773C631.306 529.381 633.56 531.636 637.168 532.537C638.972 532.988 646.187 533.439 658.362 534.341L660.165 536.145V548.32L658.362 550.124C646.187 549.222 628.149 549.222 602.897 549.222C577.194 549.222 558.706 549.673 547.433 550.124L545.629 548.32V536.145L547.433 534.341C559.608 533.439 566.823 532.988 568.626 532.537C572.234 531.636 574.038 529.381 574.939 525.773C576.292 517.206 577.194 498.718 577.194 470.309V375.162C577.194 346.754 576.292 328.266 574.939 319.698C574.488 316.09 572.234 313.836 568.626 312.934C566.823 312.483 559.608 312.032 547.433 311.13L545.629 309.326V297.151L547.433 295.348C558.706 296.25 577.194 296.25 602.897 296.25C629.051 296.25 647.539 295.799 658.362 295.348L660.165 297.151V309.326L658.362 311.13C646.187 312.032 638.972 312.483 637.168 312.934C633.56 313.836 631.757 316.09 630.855 319.698C629.502 328.266 628.6 346.754 628.6 375.162V404.924C641.226 405.375 658.813 405.826 680.908 405.826C716.081 405.826 737.726 405.375 746.293 404.924V375.162C746.293 346.754 745.391 328.266 744.039 319.698C743.588 316.09 741.333 313.836 737.726 312.934C735.922 312.483 728.707 312.032 716.532 311.13L714.728 309.326V297.151L716.532 295.348C728.256 296.25 746.744 296.25 771.996 296.25C798.15 296.25 816.638 295.799 827.461 295.348L829.265 297.151V309.326L827.461 311.13C814.835 312.032 808.071 312.483 806.267 312.934C802.66 313.836 800.856 316.09 799.954 319.698C798.601 328.266 797.699 346.754 797.699 375.162V470.309C797.699 498.718 798.601 517.206 799.954 525.773C800.405 529.381 802.66 531.636 806.267 532.537C808.071 532.988 815.286 533.439 827.461 534.341L829.265 536.145V548.32V548.32Z" fill="#E30613"/>
<path d="M1118.3 548.33L1116.5 550.133C1089.9 549.231 1073.66 549.231 1068.25 549.231C1046.15 549.231 1025.86 549.682 1006.92 550.133L1005.12 548.33V537.056L1006.92 535.252L1022.71 534.351C1029.47 533.9 1032.63 531.645 1032.63 527.136C1032.63 524.43 1030.82 519.019 1027.67 510.451L1013.24 472.573C996.553 472.122 979.868 472.122 962.733 472.122C953.263 472.122 939.284 472.122 921.247 472.573L913.13 494.669C907.268 511.353 904.112 521.725 904.112 525.783C904.112 530.292 906.817 532.998 912.679 533.9C915.836 534.351 921.698 534.802 931.168 535.252L932.971 537.056V548.78L931.168 550.584C909.072 549.682 894.642 549.682 888.329 549.682C883.369 549.682 871.194 550.133 851.804 550.584L850 548.78V537.056L851.804 535.252C863.979 534.351 871.645 532.096 874.35 528.038C877.056 523.979 887.878 498.727 905.915 453.183L952.812 335.941C956.42 326.922 961.38 312.943 968.595 294.906H994.298L1089.44 519.019C1093.05 527.587 1096.66 532.096 1099.36 533.449C1103.42 534.802 1108.83 535.703 1116.5 535.703L1118.3 537.507V548.33V548.33ZM1004.22 451.83L965.889 357.586L928.913 451.83C938.833 452.281 951.459 452.281 967.242 452.281C982.574 452.281 994.749 452.281 1004.22 451.83Z" fill="#E30613"/>
<path d="M1473.19 517.661L1465.08 536.149C1439.82 550.128 1411.41 556.892 1380.3 556.892C1317.62 556.892 1275.23 534.345 1252.24 489.252C1241.41 468.509 1236.45 445.963 1236.45 421.612C1236.45 382.381 1249.53 350.816 1275.68 327.819C1302.29 303.919 1338.81 291.744 1385.26 291.744C1414.57 291.744 1443.43 297.155 1471.39 307.527L1473.64 310.232C1469.58 326.917 1466.88 346.307 1465.98 368.402L1464.17 370.206H1453.35L1451.55 368.402C1451.1 353.973 1450.65 344.052 1449.74 338.19C1434.86 321.506 1413.22 312.938 1384.81 312.938C1355.5 312.938 1332.95 321.957 1316.27 340.445C1299.58 358.933 1291.47 383.734 1291.47 415.75C1291.47 458.589 1306.35 491.507 1335.66 514.053C1351.44 526.228 1372.18 532.541 1398.79 532.541C1422.69 532.541 1446.14 526.228 1469.13 514.053L1473.19 517.661Z" fill="#E30613"/>
<path d="M1706.79 468.052C1706.79 498.264 1692.36 521.262 1663.05 537.946C1648.62 546.063 1630.13 550.121 1607.58 550.121C1600.37 550.121 1594.5 550.121 1589.99 550.121L1547.16 549.219C1531.82 549.219 1520.1 549.67 1511.53 550.121L1509.73 548.318V543.357L1510.63 541.103C1519.65 535.692 1524.16 532.084 1525.06 530.28C1525.96 528.026 1526.86 520.36 1526.86 506.381L1527.32 466.248V375.16C1527.32 346.751 1526.41 328.263 1525.06 319.696C1524.61 316.088 1522.35 313.833 1518.75 312.932C1516.94 312.481 1509.73 312.03 1497.55 311.128L1495.75 309.324V297.149L1497.55 295.345C1508.38 296.247 1526.41 296.247 1552.57 296.247C1569.25 296.247 1584.13 295.796 1597.21 295.345C1607.58 294.894 1616.6 294.443 1623.81 294.443C1657.18 294.443 1679.28 302.109 1689.65 317.441C1695.06 325.558 1697.77 334.576 1697.77 344.948C1697.77 362.083 1691 376.062 1677.93 387.335C1671.61 392.746 1664.85 396.805 1658.09 399.51C1649.97 402.667 1641.4 404.921 1632.38 407.176C1682.44 409.882 1706.79 430.174 1706.79 468.052ZM1644.11 354.417C1644.11 327.812 1630.13 314.735 1602.62 314.735C1593.6 314.735 1585.94 315.186 1579.62 316.088C1579.17 328.714 1578.72 340.438 1578.72 350.81V400.412C1581.43 400.863 1586.84 400.863 1595.41 400.863C1617.05 400.863 1631.48 394.099 1638.24 380.12C1642.3 372.004 1644.11 363.436 1644.11 354.417ZM1651.77 473.914C1651.77 437.84 1632.83 419.802 1595.41 419.802C1590.45 419.802 1585.03 419.802 1579.17 420.253V503.225C1579.17 512.243 1579.62 520.811 1580.07 529.829C1585.03 530.731 1591.8 531.182 1600.82 531.182C1617.5 531.182 1630.58 525.771 1639.6 515.4C1647.71 505.479 1651.77 491.5 1651.77 473.914Z" fill="#E30613"/>
<path d="M1856.49 548.32L1854.69 550.124C1842.51 549.222 1824.03 549.222 1799.23 549.222C1774.42 549.222 1755.94 549.673 1743.76 550.124L1741.96 548.32V536.145L1743.76 534.341C1755.94 533.439 1763.15 532.988 1764.95 532.537C1768.56 531.636 1770.37 529.381 1771.27 525.773C1772.62 517.206 1773.52 498.718 1773.52 470.309V375.162C1773.52 346.754 1772.62 328.266 1771.27 319.698C1770.82 316.09 1768.56 313.836 1764.95 312.934C1763.15 312.483 1755.94 312.032 1743.76 311.13L1741.96 309.326V297.151L1743.76 295.348C1755.03 296.25 1773.52 296.25 1799.23 296.25C1824.48 296.25 1842.97 295.799 1854.24 295.348L1856.04 297.151V309.326L1854.24 311.13C1842.06 312.032 1834.85 312.483 1833.04 312.934C1829.44 313.836 1827.63 316.09 1826.73 319.698C1825.38 328.266 1824.48 346.754 1824.48 375.162V470.309C1824.48 498.718 1825.38 517.206 1826.73 525.773C1827.18 529.381 1829.44 531.636 1833.04 532.537C1834.85 532.988 1842.06 533.439 1854.24 534.341L1856.04 536.145V548.32H1856.49Z" fill="#E30613"/>
<path d="M2109.01 296.71C2107.66 305.729 2106.76 314.747 2106.76 324.217L2106.31 354.429L2104.5 356.233H2093.23L2091.43 354.429C2090.98 339.098 2090.07 330.079 2089.62 327.373C2088.27 322.413 2084.21 319.707 2078.35 318.806C2076.1 318.355 2064.82 318.355 2044.53 318.355H2019.73C2019.28 322.413 2019.28 339.097 2019.28 368.408V470.318C2019.28 498.727 2020.18 517.215 2021.53 525.783C2021.98 529.39 2024.24 531.645 2027.85 532.547C2029.65 532.998 2036.86 533.449 2049.04 534.351L2050.84 536.154V548.33L2049.04 550.133C2037.32 549.231 2018.83 549.231 1993.58 549.231C1967.87 549.231 1949.38 549.682 1938.11 550.133L1936.31 548.33V536.154L1938.11 534.351C1950.29 533.449 1957.5 532.998 1959.3 532.547C1962.91 531.645 1964.72 529.39 1965.62 525.783C1966.97 517.215 1967.87 498.727 1967.87 470.318V368.408C1967.87 338.647 1967.87 321.962 1967.42 318.355H1941.72C1920.07 318.355 1907.9 318.806 1904.29 320.158C1902.49 321.06 1901.13 321.962 1900.23 322.864C1899.33 324.668 1898.43 328.726 1897.53 334.588C1896.63 340.901 1896.17 347.665 1895.72 353.978L1893.92 355.782H1882.65L1880.84 353.978L1880.39 323.315C1880.39 314.747 1879.49 305.729 1878.14 296.71L1879.94 294.906C1887.16 296.259 1912.86 296.71 1957.05 296.71H2029.65C2070.68 296.71 2096.39 296.259 2106.76 294.906L2109.01 296.71Z" fill="#E30613"/>
<path d="M2361.09 297.612V309.336L2359.29 311.14C2346.66 312.944 2338.09 316.551 2332.68 321.511C2327.72 326.471 2317.35 344.058 2302.02 374.27C2287.14 404.032 2271.81 433.342 2256.47 462.653C2230.77 510.451 2211.83 537.958 2201.01 544.722C2192.44 550.133 2182.52 552.839 2171.25 552.839C2166.29 552.839 2160.88 551.937 2155.02 550.133L2153.21 547.428C2153.21 545.173 2153.21 543.369 2153.21 542.016C2153.21 529.841 2151.41 513.157 2147.8 491.963L2149.6 489.258L2155.47 488.356L2158.17 489.258C2167.64 505.04 2178.91 513.157 2191.54 513.157C2201.46 513.157 2209.13 510 2214.54 503.687C2216.79 500.982 2219.5 496.022 2223.11 489.258C2195.15 428.382 2173.05 378.328 2156.82 339.097C2151.86 326.471 2147.35 318.806 2143.74 315.649C2141.04 312.944 2132.47 311.591 2118.94 310.689L2117.14 308.885V297.161L2118.94 294.906C2126.16 295.808 2145.09 296.259 2175.76 296.259C2192.89 296.259 2210.48 295.808 2228.97 295.357L2230.77 297.161V308.885L2228.97 310.689C2227.16 310.689 2220.4 311.591 2209.58 312.943C2204.62 313.394 2202.36 315.649 2202.36 318.806C2202.36 319.707 2203.26 322.413 2204.62 326.922C2207.77 337.294 2215.89 355.782 2228.52 382.838L2252.87 436.048L2282.63 372.016C2290.29 355.331 2296.16 342.254 2299.31 332.333C2301.12 327.373 2302.02 323.766 2302.02 321.511C2302.02 318.355 2297.96 316.1 2289.84 314.296C2283.53 312.943 2278.12 311.591 2272.71 311.14L2270.9 309.336V297.161L2272.71 295.357C2283.98 296.259 2300.21 296.71 2320.06 296.71C2336.74 296.71 2349.82 296.259 2359.74 295.808L2361.09 297.612Z" fill="#E30613"/>
<path d="M127.623 89.282H119.506C118.605 78.4596 118.154 72.5975 117.703 71.6957C117.252 70.7938 113.644 70.3429 107.782 69.892C101.469 69.4411 94.7052 69.441 87.4903 69.441C86.1375 69.441 85.2357 69.8919 85.2357 70.3429C84.7847 70.7938 84.7847 72.5976 84.7847 75.3031L84.3338 117.24C84.3338 134.826 84.7847 145.648 85.2357 149.707C85.6866 153.765 86.5885 156.471 87.9413 156.922C89.2941 157.823 94.2543 158.274 103.273 158.725V168.646C85.2357 168.195 74.4133 167.744 70.3549 167.744C66.2965 167.744 55.4742 168.195 37.4369 168.646V158.725C46.0046 158.725 51.4158 158.274 52.7686 156.922C54.1214 155.569 55.0233 151.961 55.4742 145.648C55.9251 139.335 55.9251 131.219 55.9251 120.847C55.9251 100.555 55.9251 87.0273 55.4742 79.3615V75.3031C55.4742 72.5976 55.4742 71.2447 55.0233 70.3429C54.5724 69.8919 54.1214 69.441 52.7686 69.441C45.5537 69.441 38.7898 69.4411 32.4767 69.892C26.1637 70.3429 22.5562 70.7938 22.1053 71.6957C21.6544 72.5975 20.7525 78.4596 20.3016 89.282H12.1848C12.1848 78.0087 11.7339 67.6373 10.832 58.6187L12.6357 57.7168C28.4183 58.6187 47.8084 59.0696 70.3549 59.0696C93.3524 59.0696 112.292 58.6187 128.074 57.7168L129.878 58.6187C128.074 67.1864 127.623 77.5578 127.623 89.282Z" fill="#E30613"/>
<path d="M213.301 112.729C213.301 94.2411 217.359 80.7131 225.927 71.6945C236.298 60.8721 251.179 55.4609 270.569 55.4609C289.959 55.4609 303.938 59.9703 312.957 68.538C321.975 77.1057 326.485 91.0845 326.485 110.024C326.485 129.414 321.524 144.294 311.153 154.666C300.781 165.037 286.803 170.448 268.314 170.448C250.277 170.448 236.749 165.488 227.28 155.568C218.261 145.647 213.301 131.668 213.301 112.729ZM245.317 105.063C245.317 125.806 248.022 140.236 252.983 149.255C257.041 156.019 263.354 159.175 271.471 159.175C278.686 159.175 284.097 156.47 288.155 150.607C292.214 144.745 294.017 134.374 294.017 119.493C294.017 98.7504 291.763 84.3206 286.803 76.6548C282.744 70.3417 276.882 67.1852 268.314 67.1852C261.1 67.1852 255.688 69.8907 251.179 75.7528C247.572 81.164 245.317 91.0845 245.317 105.063Z" fill="#E30613"/>
<path d="M417.115 73.9491V64.9305C430.643 63.5777 441.916 61.774 450.484 59.5194L462.659 55.9119C463.561 55.9119 464.463 56.8138 464.463 58.6175C464.463 59.9703 464.463 62.2249 464.012 64.9305L463.561 75.3019L482.5 60.4212C486.558 57.2647 492.871 55.4609 502.341 55.4609C515.418 55.4609 525.789 59.5194 533.906 67.6361C541.572 75.7529 545.63 86.5752 545.63 100.103C545.63 106.867 544.728 113.631 542.474 120.395C540.67 127.159 537.964 132.119 535.259 136.178C532.553 140.236 527.593 144.745 520.829 150.156C509.105 159.626 502.341 165.037 500.086 165.939C495.577 168.645 490.617 169.547 484.304 169.547C480.696 169.547 477.54 169.096 473.932 168.194C470.325 167.292 467.168 165.939 463.561 164.586L464.012 199.759C464.463 208.327 465.365 213.287 466.717 214.64C468.07 215.992 473.932 216.894 483.853 216.894V226.364C471.678 225.913 461.306 225.462 452.739 225.462C435.603 225.462 423.879 225.913 416.664 226.364V216.894C424.781 216.443 429.741 215.992 430.643 215.541C431.545 215.091 431.996 214.189 432.447 213.287C433.349 211.483 433.799 203.366 433.799 189.388C434.25 169.997 434.701 155.117 434.701 145.647L434.25 99.6522C434.25 86.1243 433.799 78.4585 432.898 76.6548C432.447 75.7529 431.996 74.851 431.094 74.4001C430.192 74.4001 425.232 73.9491 417.115 73.9491ZM464.012 142.491C467.619 147 471.227 150.156 475.285 152.411C479.343 154.666 483.853 155.568 488.813 155.568C496.93 155.568 503.243 151.96 508.203 145.196C513.163 138.432 515.869 127.61 515.869 112.278C515.869 100.103 513.163 90.6336 508.203 84.3206C503.243 78.0075 496.479 74.851 488.362 74.851C484.304 74.851 480.245 75.7529 476.187 77.5566C472.129 79.3603 468.07 82.5168 464.012 86.1243V142.491V142.491Z" fill="#E30613"/>
<path d="M638.068 57.7124C657.458 58.1633 667.83 58.1634 669.182 58.1634L710.668 57.7124C719.236 57.7124 727.803 57.2615 736.371 56.8105L738.175 57.7124C737.273 66.731 736.822 77.5534 736.822 90.1795H727.803L727.352 82.5136C727.352 74.8478 726.451 70.7895 724.647 69.8876C722.843 69.4367 720.138 68.9857 715.628 68.9857C714.726 68.9857 712.472 68.9857 708.413 68.5348C700.297 68.0839 694.435 68.0838 689.474 68.0838C687.22 68.0838 686.318 68.5347 685.867 68.9857C685.416 69.4366 684.965 71.2403 684.965 73.495C684.965 74.8478 684.965 76.6515 684.965 78.0043C684.514 89.2776 684.514 101.002 684.514 113.628L684.965 146.095C684.965 149.702 685.867 152.408 687.22 154.212C688.572 156.015 694.885 157.368 706.159 157.819V167.74C691.729 167.289 680.005 166.838 670.986 166.838C666.477 166.838 655.654 167.289 637.617 167.74V157.819C646.185 157.368 651.145 156.917 652.498 156.466C653.851 155.564 654.753 153.761 655.203 149.702C655.654 146.095 656.105 133.018 656.105 110.471C656.105 90.6304 655.654 78.4552 655.203 74.8478C654.753 71.2403 653.851 68.9857 652.498 68.0838C651.145 67.182 646.185 66.731 637.617 66.731V57.7124H638.068Z" fill="#E30613"/>
<path d="M822.969 112.729C822.969 94.2411 827.027 80.7131 835.595 71.6945C845.966 60.8721 860.847 55.4609 880.237 55.4609C899.627 55.4609 913.606 59.9703 922.625 68.538C931.643 77.1057 936.152 91.0845 936.152 110.024C936.152 129.414 931.192 144.294 920.821 154.666C910.449 165.037 896.47 170.448 877.982 170.448C859.945 170.448 846.417 165.488 836.948 155.568C827.478 145.647 822.969 131.668 822.969 112.729ZM854.985 105.063C854.985 125.806 857.69 140.236 862.651 149.255C866.709 156.019 873.022 159.175 881.139 159.175C888.354 159.175 893.765 156.47 897.823 150.607C901.882 144.745 903.685 134.374 903.685 119.493C903.685 98.7504 901.431 84.3206 896.47 76.6548C892.412 70.3417 886.55 67.1852 877.982 67.1852C870.767 67.1852 865.356 69.8907 860.847 75.7528C857.239 81.164 854.985 91.0845 854.985 105.063Z" fill="#E30613"/>
<path d="M1027.69 67.1864V57.7168C1041.67 58.1677 1051.14 58.6187 1056.1 58.6187L1099.39 57.7168C1112.02 57.7168 1121.94 59.9715 1128.7 64.0299C1135.46 68.0883 1138.62 73.9503 1138.62 81.6162C1138.62 94.6932 1126.9 103.712 1103 108.221C1120.13 109.574 1130.95 112.73 1135.91 117.691C1140.88 122.651 1143.13 128.513 1143.13 135.277C1143.13 144.296 1138.62 151.961 1129.15 158.725C1119.68 165.489 1105.25 168.646 1085.41 168.646C1081.8 168.646 1077.74 168.646 1074.14 168.195C1064.67 167.744 1060.16 167.744 1059.26 167.744C1055.2 167.744 1046.18 168.195 1033.1 168.646V163.235C1037.61 160.529 1041.22 158.274 1043.02 156.02C1043.92 145.197 1044.38 136.63 1044.38 129.415C1044.38 92.4385 1043.92 72.5976 1043.02 70.7938C1042.12 68.5392 1036.71 67.1864 1027.69 67.1864ZM1074.14 69.892C1073.69 81.6162 1073.24 90.1838 1073.24 95.1441V104.163C1076.84 104.614 1080 104.614 1082.25 104.614C1098.49 104.614 1106.6 98.3006 1106.6 85.6746C1106.6 74.4013 1099.39 68.9901 1085.41 68.9901C1081.8 68.5391 1078.2 68.9901 1074.14 69.892ZM1073.69 114.985V124.906C1073.69 141.139 1074.14 151.51 1074.59 156.02C1079.1 156.471 1082.7 156.922 1085.86 156.922C1093.53 156.922 1099.84 155.118 1104.8 151.51C1109.76 147.903 1112.02 142.492 1112.02 135.277C1112.02 128.062 1109.31 122.651 1104.35 119.043C1099.39 115.436 1092.63 113.632 1084.51 113.632C1081.35 114.083 1077.74 114.534 1073.69 114.985Z" fill="#E30613"/>
<path d="M1335.22 57.7168L1350.1 58.6187L1377.61 57.7168V67.1864C1368.59 67.6373 1363.63 68.0883 1362.73 69.892C1361.38 71.2448 1360.93 84.3218 1360.93 108.221C1360.93 137.983 1361.38 153.765 1362.73 155.569C1363.63 157.373 1369.04 158.274 1378.06 158.274V168.195C1377.61 168.195 1375.36 168.195 1370.85 168.195C1361.83 167.744 1353.71 167.744 1346.5 167.744C1337.93 167.744 1327.11 168.195 1314.03 168.646V158.725C1323.5 158.274 1328.91 156.922 1330.26 155.569C1331.17 153.765 1331.62 145.197 1331.62 129.866L1331.17 83.4199C1306.82 120.396 1286.07 148.805 1269.39 168.646C1263.53 169.097 1257.66 169.548 1250.9 170.45L1249.55 169.097C1250.9 152.412 1251.8 137.983 1251.8 125.807C1251.8 91.0857 1251.35 72.5976 1250.45 70.7938C1249.55 68.9901 1244.14 68.0883 1235.12 67.6373V58.1678H1242.33C1250.9 58.6187 1259.02 58.6187 1266.68 58.6187C1275.7 58.6187 1286.52 58.1677 1299.15 57.7168V67.1864C1288.33 67.6373 1282.92 68.5392 1282.46 70.7938C1282.01 73.0485 1281.56 79.3615 1281.56 90.6348V137.532C1310.42 98.3006 1328.46 71.6957 1335.22 57.7168Z" fill="#E30613"/>
<path d="M1566.98 57.7105L1581.86 58.6124L1609.37 57.7105V67.18C1600.35 67.631 1595.39 68.0819 1594.48 69.8857C1593.13 71.2385 1592.68 84.3155 1592.68 108.215C1592.68 137.976 1593.13 153.759 1594.48 155.563C1595.39 157.366 1600.8 158.268 1609.82 158.268V168.189C1609.37 168.189 1607.11 168.189 1602.6 168.189C1593.58 167.738 1585.47 167.738 1578.25 167.738C1569.68 167.738 1558.86 168.189 1545.78 168.64V158.719C1555.25 158.268 1560.66 156.915 1562.02 155.563C1562.92 153.759 1563.37 145.191 1563.37 129.859L1562.92 83.4136C1538.57 120.39 1517.83 148.799 1501.14 168.64C1495.28 169.09 1489.42 169.541 1482.65 170.443L1481.3 169.09C1482.65 152.406 1483.56 137.976 1483.56 125.801C1483.56 91.0794 1483.1 72.5912 1482.2 70.7875C1481.3 68.9838 1475.89 68.0819 1466.87 67.631V58.1614H1474.09C1482.65 58.6124 1490.77 58.6124 1498.44 58.6124C1507.45 58.6124 1518.28 58.1614 1530.9 57.7105V67.18C1520.08 67.631 1514.67 68.5329 1514.22 70.7875C1513.77 73.0422 1513.32 79.3552 1513.32 90.6284V137.525C1542.18 98.2943 1560.21 71.6893 1566.98 57.7105ZM1575.55 32.4584L1570.13 35.1639C1567.88 36.5167 1565.63 37.4186 1562.92 38.7714C1546.24 38.3204 1528.2 36.5167 1508.81 32.9093V30.2037C1514.67 27.4981 1521.43 22.9888 1529.1 16.6758C1539.02 22.9888 1554.35 27.4981 1575.09 30.2037L1575.55 32.4584Z" fill="#E30613"/>
<path d="M1948.05 197.968V195.263C1948.05 183.088 1947.59 176.324 1946.69 174.52C1945.79 172.716 1943.08 170.912 1937.67 169.56C1932.71 168.207 1920.54 167.305 1901.15 167.305H1877.7C1865.98 167.305 1857.86 167.756 1854.25 168.207C1850.64 168.658 1847.94 169.56 1846.59 170.461C1845.23 171.363 1843.43 174.069 1841.17 178.578C1838.92 183.088 1836.67 189.401 1834.86 197.968H1824.04C1826.74 180.833 1829 167.756 1829.9 158.737C1836.67 157.835 1842.08 154.679 1846.59 150.17C1850.64 145.66 1853.8 137.544 1856.06 126.27C1858.31 114.997 1859.21 99.2144 1859.21 79.3734C1859.21 73.9623 1858.31 70.3548 1856.96 69.453C1855.15 68.5511 1850.19 67.6493 1841.17 67.6493V58.1797C1858.76 58.6306 1870.03 59.0815 1874.54 59.0815H1925.95C1933.62 59.0815 1944.44 58.6306 1957.51 58.1797V67.6493C1948.05 67.6493 1943.08 68.5511 1942.18 70.8058C1941.28 73.0604 1940.83 85.6865 1940.83 108.684C1940.83 137.093 1941.28 152.875 1942.18 155.13C1943.08 157.385 1948.05 158.737 1957.51 158.737C1958.42 158.737 1959.77 158.737 1961.57 158.737L1962.02 160.992C1960.22 172.716 1958.87 185.342 1958.87 198.87H1948.05V197.968ZM1849.74 156.032H1901.15C1905.21 156.032 1907.91 155.581 1909.27 154.228C1910.62 152.875 1911.07 148.366 1911.52 140.7C1911.52 132.583 1911.97 122.663 1911.97 110.939C1911.97 98.7635 1911.52 85.2356 1911.07 69.9039C1907.01 69.453 1902.05 69.002 1897.54 69.002H1884.46C1879.05 69.4529 1875.45 69.453 1872.74 69.453C1872.29 72.1586 1872.29 75.3151 1871.84 79.3734C1870.94 105.527 1869.13 123.114 1866.43 133.034C1863.27 142.504 1857.86 150.17 1849.74 156.032Z" fill="#E30613"/>
<path d="M2050.39 167.746V158.277C2058.96 157.826 2063.92 157.375 2065.28 156.473C2066.63 155.571 2067.53 153.317 2067.98 150.16C2068.43 145.2 2068.88 134.377 2068.88 118.144C2068.88 110.929 2068.88 104.165 2068.43 98.3029L2067.98 84.775C2067.98 80.2657 2067.53 77.5601 2066.63 76.6583C2065.73 75.7564 2063.02 74.8545 2058.96 74.8545L2050.39 74.4036V65.385C2068.88 64.0322 2084.21 60.8756 2096.39 55.4645L2099.1 57.7191C2097.74 72.5998 2097.29 93.7936 2097.29 122.202C2097.29 138.436 2097.74 148.356 2098.19 151.964C2098.64 154.218 2099.1 156.022 2100.45 156.473C2101.35 157.375 2106.31 157.826 2115.78 158.728V168.197C2101.8 167.746 2090.98 167.295 2083.31 167.295C2079.25 167.295 2067.98 167.295 2050.39 167.746ZM2082.41 0C2087.37 0 2091.43 1.80371 2095.04 5.41116C2098.64 9.01861 2100.45 13.077 2100.45 18.0372C2100.45 22.9975 2098.64 27.0558 2095.04 30.6633C2091.43 34.2707 2087.37 36.0745 2082.41 36.0745C2077.45 36.0745 2073.39 34.2707 2069.78 30.6633C2066.18 27.0558 2064.37 22.9975 2064.37 18.0372C2064.37 13.077 2066.18 8.56768 2069.78 5.41116C2073.39 1.80371 2077.45 0 2082.41 0Z" fill="#E30613"/>
<path d="M2201.47 167.752V157.831C2210.49 157.38 2215.45 156.478 2216.8 155.125C2218.15 153.773 2218.6 140.245 2218.6 114.993C2218.6 86.133 2218.15 71.2523 2216.8 69.4486C2215.9 67.6448 2210.49 66.7429 2201.47 66.7429V57.2734C2201.92 57.2734 2204.17 57.2734 2208.68 57.7243C2216.8 58.1753 2222.21 58.1753 2224.92 58.1753L2252.88 57.2734C2256.48 66.743 2266.4 89.2895 2283.54 125.364C2295.26 101.014 2305.63 78.0163 2314.65 57.2734C2320.97 57.7244 2327.73 58.1753 2334.49 58.1753C2338.55 58.1753 2347.57 57.7244 2362 57.2734V66.7429C2353.43 67.1939 2348.92 68.0957 2347.57 68.9976C2346.67 69.8995 2345.77 74.4088 2345.77 82.0746C2345.32 89.7405 2345.32 98.3082 2345.32 107.778C2345.32 137.539 2345.77 153.322 2346.67 155.125C2347.57 156.929 2352.53 157.831 2362 157.831V167.752C2361.55 167.752 2359.29 167.752 2354.79 167.752C2345.77 167.301 2337.65 167.301 2330.44 167.301C2321.87 167.301 2311.5 167.752 2297.97 168.202V158.282C2307.44 157.831 2312.85 156.929 2314.2 155.125C2315.1 153.322 2315.55 149.714 2315.55 143.852L2316.01 110.934V78.9181C2316.01 79.3691 2309.69 93.3479 2297.07 119.953C2283.54 150.165 2276.32 165.948 2275.42 168.202H2270.01L2228.98 78.4672V110.483C2228.98 137.088 2229.43 151.518 2230.33 153.773C2231.23 156.027 2236.64 157.38 2247.01 157.38V167.301C2246.56 167.301 2244.31 167.301 2239.8 167.301C2231.68 166.85 2226.27 166.85 2224.02 166.85L2201.47 167.752Z" fill="#E30613"/>
</svg>
